<?xml version="1.0" encoding="utf-8"?>
<!-- Generator: Adobe Illustrator 22.1.0, SVG Export Plug-In . SVG Version: 6.00 Build 0)  -->
<svg version="1.1" id="Layer_1" xmlns="http://www.w3.org/2000/svg" xmlns:xlink="http://www.w3.org/1999/xlink" x="0px" y="0px"
	 viewBox="0 0 512 512" style="enable-background:new 0 0 512 512;" xml:space="preserve">
<g>
	<path d="M105.2,129.7c8.2-8.4,12.6-13.5,12.6-17.3c0-2.2-1.5-4.4-3-5.9c-1.9-1.4-4.2-2.2-6.6-2.2c-6.7,0-16.5,6.9-28.3,20.3
		C47.1,161.9,30.3,198.1,31,251.5S44.8,344,73.8,379.5c14.9,18.7,26.2,28.3,34.4,28.3c2.5-0.2,4.8-1.3,6.6-3c1.5-2.2,3-4.5,3-6.6
		c0-4.5-3.1-9.6-10.4-16.2C72.2,348.4,54.1,305.2,54,251.4C53.8,202.9,71,162.6,105.2,129.7z M217.6,385.7c0.5,0.3,0.7,0.4,0.7,0.4
		L217.6,385.7z M291.8,386.1l0.1-0.1C291.8,386.1,291.7,386.2,291.8,386.1z M294.2,261.1c-12.8-3.3,39.8-65.5-53.8-140
		c0,0,12.3,39-49.7,126.1c-58.7,82.5,18.5,133.4,26.9,138.5c-5.3-3.4-37.5-28.2,7.5-101.7c8.7-14.5,20.2-27.6,34.4-57
		c0,0,12.6,17.7,6,56.2c-9.8,58.2,42.6,41.5,43.3,42.3c18,21.2-14,58.1-17.1,60.5c4.3-2.9,93-61.7,26.1-148.7
		C313.2,242.1,307.1,264.4,294.2,261.1z M432.2,124.5c-11.8-13.4-21.6-20.3-28.4-20.3c-2.4,0.1-4.7,0.8-6.6,2.2
		c-1.5,1.5-3,3.7-3,5.9c0,3.8,4.4,8.9,12.6,17.3c34.2,32.9,51.4,73.2,51.2,121.8c-0.1,53.7-18.2,96.9-53.3,130.4
		c-7.4,6.6-10.4,11.8-10.4,16.2c0,2.2,1.5,4.4,3,6.6c1.8,1.8,4.1,2.8,6.6,3c8.1,0,19.5-9.6,34.4-28.3c28.9-35.5,42-74.6,42.7-127.9
		S464.9,161.9,432.2,124.5z"/>
</g>
</svg>
