<svg xmlns="http://www.w3.org/2000/svg" width="123" height="117" fill="none" viewBox="0 0 123 117">
  <path fill="#000" d="M21.14.064c-2.248.21-3.632.484-5.429 1.042C12.435 2.13 9.417 3.93 6.775 6.444 3.037 10.01.923 14.04.173 19.058c-.183 1.207-.183 77.677 0 78.884.75 5.009 2.873 9.076 6.592 12.623 3.728 3.537 8.005 5.558 13.27 6.27 1.27.174 81.661.174 82.93 0 5.275-.712 9.513-2.723 13.26-6.279 3.739-3.565 5.853-7.596 6.602-12.614.183-1.207.183-77.677 0-78.884-.509-3.428-1.643-6.352-3.469-8.958-.999-1.444-1.816-2.394-3.065-3.583-3.69-3.528-7.707-5.484-12.944-6.316-.884-.137-4.123-.155-41.417-.164-22.255 0-40.609.009-40.791.027Zm9.773 19.808c3.056.594 5.459 2.312 6.756 4.853 1.191 2.331 1.316 5.156.317 7.523-.826 1.993-2.739 3.848-4.872 4.772-2.864 1.233-7.024 1.215-9.85-.055-1.162-.521-1.902-1.033-2.796-1.92-1.21-1.206-1.922-2.413-2.325-3.94-.183-.676-.221-1.041-.221-2.358.01-1.325.038-1.663.23-2.33.442-1.555 1.192-2.789 2.403-3.94 1.489-1.417 3.43-2.34 5.486-2.633.395-.055.827-.119.961-.137.48-.082 3.239.037 3.912.165Zm55.331 24.222c2.47.348 4.257.86 6.246 1.792 5.391 2.505 8.956 6.92 10.513 13.007 1.019 3.976 1.086 5.393 1.047 24.607l-.028 14.442-9.245.027-9.244.019-.038-15.42c-.03-16.92 0-15.97-.596-18.218-1-3.72-3.238-5.877-6.698-6.453-1.23-.201-3.555-.128-4.631.146-1.576.402-2.845 1.115-4.123 2.313-1.009.95-1.672 1.8-2.277 2.915-.606 1.106-.836 1.957-.961 3.492-.058.731-.096 7.075-.096 16.206v15.019H47.682l.019-26.463.01-26.462h18.402l.019 3.72.029 3.73.509-.704c1.115-1.572 2.96-3.418 4.44-4.47 2.632-1.873 5.736-2.998 9.272-3.363 1.163-.12 4.67-.046 5.862.118ZM37.477 71.525v26.462l-9.245-.018-9.253-.027-.03-26.325c-.009-14.479 0-26.38.03-26.444.028-.082 1.98-.11 9.273-.11h9.225v26.462Z"/>
</svg>
